<svg xmlns="http://www.w3.org/2000/svg" width="20" height="15.556"><g data-name="Group 8333" fill="#ff671d"><path data-name="Path 4073" d="M16.667 1.111 2.223 5.556V10l3.532 1.087a3.333 3.333 0 1 0 6.366 1.958l4.547 1.4ZM8.889 13.889a1.667 1.667 0 0 1-1.537-2.311l3.169.976a1.668 1.668 0 0 1-1.632 1.335Z" opacity=".4"/><path data-name="Path 4074" d="M19.444 0h-1.111a.556.556 0 0 0-.555.556V15a.556.556 0 0 0 .555.556h1.111A.556.556 0 0 0 20 15V.556A.556.556 0 0 0 19.444 0ZM1.111 4.444A1.112 1.112 0 0 0 0 5.556V10a1.111 1.111 0 1 0 2.222 0V5.556a1.112 1.112 0 0 0-1.111-1.112Z"/></g></svg>