<svg data-name="Group 11" xmlns="http://www.w3.org/2000/svg" width="24" height="24"><path data-name="Path 31" d="m10.787 1.529-.9-.9H.9l-.9.9v8.989l.9.9h8.989l.9-.9Zm-1.8 8.09H1.8v-7.19h7.191Z" fill="#263442"/><path data-name="Path 32" d="m.9 13.213-.9.9v8.989l.9.9h8.989l.9-.9v-8.989l-.9-.9Zm8.09 8.989H1.8v-7.189h7.191Z" fill="#263442"/><path data-name="Path 33" d="M12.584 14.113v8.989l.9.9h8.989l.9-.9v-8.989l-.9-.9h-8.989Zm1.8.9h7.191v7.191h-7.191Z" fill="#263442"/><path data-name="Path 34" d="M24 5.393 18.605 0h-1.257l-5.393 5.393V6.65l5.393 5.393h1.257L24 6.65Zm-6.022 4.746-4.117-4.117 4.117-4.117 4.117 4.117Z" fill="#263442"/></svg>