<svg xmlns="http://www.w3.org/2000/svg" width="26.627" height="24.878"><g data-name="Group 130"><path data-name="Path 193" d="M23.71 2.134h-2.5v-1.3A.838.838 0 0 0 20.352 0H6.279a.838.838 0 0 0-.858.834v1.3h-2.5A2.874 2.874 0 0 0 0 4.969V6.8a4.56 4.56 0 0 0 2.985 4.269l3.706 1.434a7.872 7.872 0 0 0 3.637 2.968v3.668a2.938 2.938 0 0 0-2.848 2.9v2a.838.838 0 0 0 .858.834h9.985a.838.838 0 0 0 .858-.834V22.01a2.938 2.938 0 0 0-2.848-2.9v-3.669a7.675 7.675 0 0 0 3.637-2.968l3.672-1.434a4.56 4.56 0 0 0 2.985-4.269V4.936a2.868 2.868 0 0 0-2.917-2.802ZM3.637 9.5A2.9 2.9 0 0 1 1.75 6.8V4.969a1.2 1.2 0 0 1 1.2-1.167h2.471v4.535A7.571 7.571 0 0 0 5.7 10.3Zm13.794 12.51v1.2H9.2v-1.2a1.249 1.249 0 0 1 1.27-1.234h5.7a1.249 1.249 0 0 1 1.261 1.234Zm-2.848-2.9h-2.539v-3.2a8.143 8.143 0 0 0 1.27.1 7.825 7.825 0 0 0 1.27-.1Zm-1.27-4.769a6.109 6.109 0 0 1-6.176-6v-6.67H19.49v6.67a6.109 6.109 0 0 1-6.176 5.999Zm11.6-7.57a2.9 2.9 0 0 1-1.887 2.7l-2.059.8a7.321 7.321 0 0 0 .275-1.934V3.8h2.5a1.2 1.2 0 0 1 1.2 1.167v1.8Z" fill="#263442"/></g></svg>