<svg xmlns="http://www.w3.org/2000/svg" width="20" height="20"><path data-name="Path 4032" d="M17.857 0H2.143A2.143 2.143 0 0 0 0 2.143v15.714A2.143 2.143 0 0 0 2.143 20h15.714A2.143 2.143 0 0 0 20 17.857V2.143A2.143 2.143 0 0 0 17.857 0Zm-2.429 12.906a.536.536 0 0 1 0 .759l-1.768 1.764a.537.537 0 0 1-.759 0L10 12.5l-2.906 2.929a.537.537 0 0 1-.759 0l-1.763-1.768a.535.535 0 0 1-.158-.38.535.535 0 0 1 .158-.379l2.929-2.9-2.929-2.906a.536.536 0 0 1 0-.759L6.34 4.569a.535.535 0 0 1 .759 0L10 7.5l2.906-2.929a.538.538 0 0 1 .379-.157.538.538 0 0 1 .38.157l1.768 1.768a.536.536 0 0 1 0 .759l-2.933 2.9Z" fill="#9e9ea7" opacity=".4"/></svg>