<svg xmlns="http://www.w3.org/2000/svg" width="24" height="20"><g data-name="Group 23"><g data-name="Group 16"><g data-name="Group 15"><path data-name="Path 36" d="M7.412 7.734a3.642 3.642 0 0 1-.433-.028l.228.031a3.281 3.281 0 0 1-.774-.211l.2.085a3.384 3.384 0 0 1-.529-.285c-.043-.028-.083-.057-.122-.085-.117-.083.185.151.026.02a2.959 2.959 0 0 1-.222-.2 2.99 2.99 0 0 1-.2-.222c-.134-.162.1.142.02.026l-.085-.122a3.384 3.384 0 0 1-.285-.529l.085.2a3.22 3.22 0 0 1-.211-.774l.031.228a8.485 8.485 0 0 1-.028-1.141 8.984 8.984 0 0 1 .028-1.141l-.031.228a3.28 3.28 0 0 1 .211-.774l-.085.2a3.384 3.384 0 0 1 .285-.529c.028-.043.057-.083.085-.122.083-.117-.151.185-.02.026a2.962 2.962 0 0 1 .2-.222 2.99 2.99 0 0 1 .222-.2c.162-.134-.142.1-.026.02l.122-.085a3.384 3.384 0 0 1 .529-.285l-.2.085a3.22 3.22 0 0 1 .774-.211l-.228.031a3.385 3.385 0 0 1 .865 0l-.228-.031a3.281 3.281 0 0 1 .774.211l-.2-.085a3.384 3.384 0 0 1 .529.285c.043.028.083.057.122.085.117.083-.185-.151-.026-.02a2.962 2.962 0 0 1 .222.2c.071.071.137.145.2.222.134.162-.1-.142-.02-.026l.085.122a3.383 3.383 0 0 1 .285.529l-.085-.2a3.22 3.22 0 0 1 .211.774l-.031-.228a8.482 8.482 0 0 1 .028 1.141 8.981 8.981 0 0 1-.028 1.141l.031-.228a3.281 3.281 0 0 1-.211.774l.085-.2a3.383 3.383 0 0 1-.285.529c-.028.043-.057.083-.085.122-.083.117.151-.185.02-.026a2.966 2.966 0 0 1-.2.222 2.99 2.99 0 0 1-.222.2c-.162.134.142-.1.026-.02l-.122.085a3.384 3.384 0 0 1-.529.285l.2-.085a3.221 3.221 0 0 1-.774.211l.228-.031a3.126 3.126 0 0 1-.433.028.854.854 0 0 0 0 1.708 4.024 4.024 0 0 0 4.011-4.011V4.048a4.115 4.115 0 0 0-1-2.676 4.008 4.008 0 0 0-7 2.306 14.945 14.945 0 0 0-.017 1.6 4.124 4.124 0 0 0 .683 2.388A4.034 4.034 0 0 0 6.602 9.36a4.342 4.342 0 0 0 .814.085.854.854 0 1 0 0-1.708Z" fill="#263442"/></g></g><g data-name="Group 18"><g data-name="Group 17"><path data-name="Path 37" d="M13.069 15.036v4.1l.854-.854H2.469c-.527 0-1.059-.014-1.586 0H.86l.854.854v-3.735a6.166 6.166 0 0 1 .026-.76l-.031.228a3.02 3.02 0 0 1 .2-.737l-.085.2a2.987 2.987 0 0 1 .27-.5c.028-.043.06-.08.088-.122-.162.239-.063.08-.017.026s.117-.131.179-.194.128-.12.2-.176c.162-.134-.139.1-.026.017.04-.029.083-.06.125-.085a3.4 3.4 0 0 1 .5-.27l-.2.085a3.13 3.13 0 0 1 .817-.222l-.228.031a8.161 8.161 0 0 1 .988-.026h5.622a10.023 10.023 0 0 1 1.17.023l-.228-.031a3.166 3.166 0 0 1 .8.219l-.2-.085a3.375 3.375 0 0 1 .5.27 1.035 1.035 0 0 1 .128.091l-.1-.077a3.908 3.908 0 0 1 .256.231c.06.06.117.125.174.191s.088.162-.028-.037c.023.037.051.071.074.105a3.055 3.055 0 0 1 .268.492l-.085-.2a3.1 3.1 0 0 1 .211.763l-.031-.228a3.224 3.224 0 0 1 .028.407.854.854 0 0 0 1.708 0 3.859 3.859 0 0 0-2.152-3.444 4.022 4.022 0 0 0-1.716-.4H4.692c-.316 0-.632-.014-.948.006a4.022 4.022 0 0 0-3.165 1.842 3.81 3.81 0 0 0-.572 1.816c-.009.159-.006.322-.006.481v3.8a.866.866 0 0 0 .854.854H12.31c.529 0 1.056.011 1.586 0h.023a.866.866 0 0 0 .854-.854v-4.1a.851.851 0 1 0-1.7 0Z" fill="#263442"/></g></g><g data-name="Group 20"><g data-name="Group 19"><path data-name="Path 38" d="M17.111 8.449a3.032 3.032 0 0 1-.393-.026l.228.031a3.012 3.012 0 0 1-.737-.2l.2.085a2.968 2.968 0 0 1-.5-.268c-.017-.011-.12-.065-.122-.085 0 .023.191.154.054.04a4.525 4.525 0 0 1-.208-.188 2.624 2.624 0 0 1-.188-.208c-.046-.054-.105-.165.04.054-.029-.043-.06-.08-.085-.122a2.973 2.973 0 0 1-.268-.5l.085.2a3.149 3.149 0 0 1-.2-.737l.031.228a8.124 8.124 0 0 1-.026-1.053 8.669 8.669 0 0 1 .026-1.053l-.031.228a3.016 3.016 0 0 1 .2-.737l-.085.2a2.973 2.973 0 0 1 .268-.5c.011-.017.065-.12.085-.122-.023 0-.154.191-.04.054.06-.071.122-.139.188-.208a2.63 2.63 0 0 1 .208-.188c.054-.046.165-.105-.054.04.043-.028.08-.06.122-.085a2.969 2.969 0 0 1 .5-.268l-.2.085a3.145 3.145 0 0 1 .737-.2l-.228.031a3.024 3.024 0 0 1 .786 0l-.228-.031a3.013 3.013 0 0 1 .737.2l-.2-.085a2.972 2.972 0 0 1 .5.268c.017.011.12.065.122.085 0-.023-.191-.154-.054-.04.071.06.139.122.208.188a2.636 2.636 0 0 1 .188.208c.046.054.105.165-.04-.054.028.043.06.08.085.122a2.973 2.973 0 0 1 .268.5l-.085-.2a3.143 3.143 0 0 1 .2.737l-.031-.228A8.125 8.125 0 0 1 19.2 5.7a8.656 8.656 0 0 1-.026 1.053l.031-.228a3.013 3.013 0 0 1-.2.737l.085-.2a2.973 2.973 0 0 1-.268.5c-.011.017-.065.12-.085.122.023 0 .154-.191.04-.054-.06.071-.122.139-.188.208a2.619 2.619 0 0 1-.208.188c-.054.046-.165.105.054-.04-.043.028-.08.06-.122.085a2.971 2.971 0 0 1-.5.268l.2-.085a3.144 3.144 0 0 1-.737.2l.228-.031q-.2.021-.393.026a.854.854 0 0 0 0 1.708A3.8 3.8 0 0 0 20.9 6.368V5.081a3.9 3.9 0 0 0-.948-2.531 3.785 3.785 0 0 0-6.613 2.18 13.667 13.667 0 0 0-.017 1.489 3.883 3.883 0 0 0 .655 2.266 3.819 3.819 0 0 0 2.36 1.588 4.157 4.157 0 0 0 .774.083.854.854 0 1 0 0-1.708Z" fill="#263442"/></g></g><g data-name="Group 22"><g data-name="Group 21"><path data-name="Path 39" d="M22.292 15.327v3.812l.854-.854h-9.223l.854.854v-2.065c0-.7.014-1.4 0-2.106a3.861 3.861 0 0 0-1.329-2.841l-.376 1.426a3.261 3.261 0 0 1 .655-.171l-.228.031a7.531 7.531 0 0 1 .948-.026h5.223a8.716 8.716 0 0 1 1.056.023l-.228-.031a2.71 2.71 0 0 1 .7.188l-.2-.085a2.9 2.9 0 0 1 .464.245l.122.085c.114.08-.168-.14-.057-.043.065.057.131.114.194.174s.12.125.176.191.105.165-.043-.057c.028.043.06.08.085.122a2.88 2.88 0 0 1 .248.461l-.085-.2a2.968 2.968 0 0 1 .194.7l-.031-.228a2.75 2.75 0 0 1 .031.4.854.854 0 1 0 1.708 0 3.636 3.636 0 0 0-.649-2.078 3.781 3.781 0 0 0-1.8-1.369 5.337 5.337 0 0 0-1.862-.2h-4.822a6.323 6.323 0 0 0-2.252.228.887.887 0 0 0-.6.6.846.846 0 0 0 .219.831 3.255 3.255 0 0 1 .25.233c.04.043.077.083.114.128.145.168-.085-.125 0-.006a3.3 3.3 0 0 1 .342.6l-.085-.2a3.124 3.124 0 0 1 .211.766l-.031-.228a13.221 13.221 0 0 1 .028 1.645v2.867a.866.866 0 0 0 .854.854h9.223a.866.866 0 0 0 .854-.854v-3.812a.853.853 0 1 0-1.705 0Z" fill="#263442"/></g></g></g></svg>