<svg xmlns="http://www.w3.org/2000/svg" width="24" height="24"><path data-name="Path 35" d="M12 24a12 12 0 1 1 12-12 12.017 12.017 0 0 1-12 12Zm0-22.326A10.326 10.326 0 1 0 22.326 12 10.338 10.338 0 0 0 12 1.674Zm5.079 5.888a.8.8 0 0 0-.642-.67.747.747 0 0 0-.642.14l-6.419 1.73a.892.892 0 0 0-.614.642L7 15.935a.743.743 0 0 0-.084.335.834.834 0 0 0 .363.7.941.941 0 0 0 .474.14.859.859 0 0 0 .363-.084l6.53-1.758a.9.9 0 0 0 .614-.614l1.73-6.5a.826.826 0 0 0 .089-.591Zm-3.321 6.2-4.8 1.284 1.284-4.828 4.8-1.284ZM3.07 12.837H.837a.837.837 0 1 1 0-1.674H3.07a.837.837 0 1 1 0 1.674Zm20.093 0H20.93a.837.837 0 0 1 0-1.674h2.233A.822.822 0 0 1 24 12a.84.84 0 0 1-.837.837ZM12 3.907a.822.822 0 0 1-.837-.837V.837a.837.837 0 1 1 1.674 0V3.07a.822.822 0 0 1-.837.837ZM12 24a.822.822 0 0 1-.837-.837V20.93a.837.837 0 1 1 1.674 0v2.233A.84.84 0 0 1 12 24Z" fill="#263442"/></svg>