<svg xmlns="http://www.w3.org/2000/svg" width="18" height="24"><g data-name="Group 8332" fill="#d41367"><path data-name="Path 4069" d="M13.875 3c0 3.631-2.166 6.75-4.875 6.75S4.125 6.632 4.125 3Z" opacity=".4"/><path data-name="Path 4070" d="M16.875 3A1.126 1.126 0 0 0 18 1.875v-.75A1.126 1.126 0 0 0 16.875 0H1.125A1.126 1.126 0 0 0 0 1.125v.75A1.126 1.126 0 0 0 1.125 3c0 4.266 2.391 7.862 5.664 9-3.274 1.138-5.664 4.734-5.664 9A1.126 1.126 0 0 0 0 22.125v.75A1.126 1.126 0 0 0 1.125 24h15.75A1.126 1.126 0 0 0 18 22.875v-.75A1.126 1.126 0 0 0 16.875 21c0-4.266-2.391-7.862-5.664-9 3.273-1.138 5.664-4.734 5.664-9Zm-3 18h-9.75c0-3.631 2.166-6.75 4.875-6.75s4.875 3.118 4.875 6.75ZM9 9.75C6.291 9.75 4.125 6.632 4.125 3h9.75c0 3.631-2.166 6.75-4.875 6.75Z"/></g></svg>