<svg xmlns="http://www.w3.org/2000/svg" width="21.687" height="22.335"><g data-name="Group 8335" fill="#d41367"><path data-name="Path 4065" d="M.478 8.575 5.3.815a1.6 1.6 0 0 1 .456-.49 1.715 1.715 0 0 1 .608-.28 1.663 1.663 0 0 1 .667-.02 1.757 1.757 0 0 1 .624.24 1.61 1.61 0 0 1 .487.45 1.771 1.771 0 0 1 .275.61 1.727 1.727 0 0 1 .022.67 1.694 1.694 0 0 1-.235.62l-1.213 1.96 9.349-3.8a1.7 1.7 0 0 1 2.215.91 1.736 1.736 0 0 1-.96 2.27l-6.94 2.83.128.31 8.556-3.47a1.7 1.7 0 0 1 2.215.91 1.736 1.736 0 0 1-.96 2.27l-8.528 3.47.129.32 7.013-2.85a1.7 1.7 0 0 1 2.215.91 1.736 1.736 0 0 1-.96 2.27l-5.163 2.06a1.654 1.654 0 0 0-.706-.69 1.705 1.705 0 0 0-.967-.18l-9.079.96a1.963 1.963 0 0 0-.9.32 1.983 1.983 0 0 0-.659.69l-.688 1.2-1.975-4.85a2.07 2.07 0 0 1-.144-.95 2.006 2.006 0 0 1 .296-.91Zm15.028 5.06a1.578 1.578 0 0 0-.065-.32l1.625-.64a1.713 1.713 0 0 1 2.243 2.26 1.713 1.713 0 0 1-.926.9l-3.855 1.56-2.832-1.64 2.288-.24a1.605 1.605 0 0 0 .637-.2 1.651 1.651 0 0 0 .513-.42 1.809 1.809 0 0 0 .31-.59 1.749 1.749 0 0 0 .062-.67Z" opacity=".4"/><path data-name="Path 4066" d="M0 10.655v8.37a2.048 2.048 0 0 0 .438 1.26 1.988 1.988 0 0 0 1.126.71l4.764 1.13a8.306 8.306 0 0 0 1.86.21h6.358a1.685 1.685 0 0 0 1.691-1.66 1.713 1.713 0 0 0-1.725-1.72h-3.683v-.34h7.451a1.7 1.7 0 0 0 1.218-2.91 1.688 1.688 0 0 0-1.184-.48h-7.485v-.34h9.1a1.722 1.722 0 0 0 1.725-1.73 1.7 1.7 0 0 0-1.691-1.66h-9.134v-.33h7.4a1.7 1.7 0 0 0 1.218-2.91 1.688 1.688 0 0 0-1.184-.48h-9.98l1.841-1.34a1.7 1.7 0 0 0 .65-1.77 1.749 1.749 0 0 0-.277-.6 1.581 1.581 0 0 0-.485-.44 1.553 1.553 0 0 0-.619-.23 1.707 1.707 0 0 0-1.259.3l-7.3 5.32a2 2 0 0 0-.616.72 2.032 2.032 0 0 0-.218.92Z"/></g></svg>