<svg xmlns="http://www.w3.org/2000/svg" width="20" height="22.857"><defs><clipPath id="a"><path data-name="Rectangle 3113" transform="translate(60 118)" fill="#fff" d="M0 0h20v22.857H0z"/></clipPath></defs><g data-name="Group 8323" transform="translate(-60 -118)" clip-path="url(#a)"><path data-name="Path 4022" d="M66.786 128.045h-3.572v-3.215a6.786 6.786 0 0 1 13.571 0v3.215h-3.571v-3.215a3.214 3.214 0 0 0-6.429 0Z" fill="#9e9ea7" opacity=".4"/><path data-name="Path 4023" d="M77.857 128.045H62.143A2.142 2.142 0 0 0 60 130.188v8.571a2.143 2.143 0 0 0 2.143 2.143h15.714A2.143 2.143 0 0 0 80 138.759v-8.571a2.142 2.142 0 0 0-2.143-2.143Zm-6.071 7.455a1.786 1.786 0 1 1-3.571 0v-2.143a1.786 1.786 0 1 1 3.571 0Z" fill="#3d3d4e"/></g></svg>