<svg xmlns="http://www.w3.org/2000/svg" width="20" height="20"><defs><clipPath id="a"><path data-name="Rectangle 3119" transform="translate(62 1047)" fill="#fff" d="M0 0h20v20H0z"/></clipPath></defs><g data-name="Group 8328" transform="translate(-62 -1047)" clip-path="url(#a)" fill="#ff671d"><path data-name="Path 4053" d="m67.991 1057.88-2.085 2.09-.964-.97a.632.632 0 0 0-.884 0l-.685.69a.617.617 0 0 0-.176.35.641.641 0 0 0 .067.39l1.236 2.3-2.317 2.32a.709.709 0 0 0-.136.2.629.629 0 0 0 0 .48.508.508 0 0 0 .136.2l.884.89a.732.732 0 0 0 .2.13.6.6 0 0 0 .478 0 .734.734 0 0 0 .2-.13l2.317-2.32 2.3 1.24a.643.643 0 0 0 .387.06.652.652 0 0 0 .351-.17l.685-.69a.62.62 0 0 0 0-.88l-.963-.97 2.085-2.08Zm13.415-10.87-3.051.51-5.469 5.47 3.125 3.12 5.469-5.46.516-3.06a.478.478 0 0 0-.021-.23.541.541 0 0 0-.126-.21.528.528 0 0 0-.2-.12.39.39 0 0 0-.243-.02Z" opacity=".4"/><path data-name="Path 4054" d="m77.21 1059.09-11.562-11.57-3.053-.51a.39.39 0 0 0-.238.02.527.527 0 0 0-.2.12.541.541 0 0 0-.126.21.478.478 0 0 0-.021.23l.516 3.06 11.562 11.56Zm4.607 5.96-2.317-2.32 1.236-2.3a.641.641 0 0 0 .067-.39.65.65 0 0 0-.176-.35l-.685-.68a.587.587 0 0 0-.2-.14.6.6 0 0 0-.478 0 .589.589 0 0 0-.2.14L74 1064.06a.621.621 0 0 0 0 .88l.685.69a.652.652 0 0 0 .35.17.643.643 0 0 0 .387-.06l2.3-1.24 2.317 2.32a.732.732 0 0 0 .2.13.6.6 0 0 0 .478 0 .735.735 0 0 0 .2-.13l.884-.89a.508.508 0 0 0 .136-.2.628.628 0 0 0 0-.48.705.705 0 0 0-.12-.2Z"/></g></svg>