<svg xmlns="http://www.w3.org/2000/svg" width="20" height="22.857"><defs><clipPath id="a"><path data-name="Rectangle 3114" transform="translate(60 221)" fill="#fff" d="M0 0h20v22.857H0z"/></clipPath></defs><g data-name="Group 8324" transform="translate(-60 -221)" clip-path="url(#a)"><path data-name="Path 4027" d="M63.214 232.429v-4.576a6.786 6.786 0 1 1 13.571-.067v.714a1.066 1.066 0 0 1-1.071 1.071h-1.428a1.059 1.059 0 0 1-.758-.313 1.053 1.053 0 0 1-.232-.348 1.065 1.065 0 0 1-.081-.41v-.714a3.214 3.214 0 1 0-6.429.04v4.6Z" fill="rgba(212,19,103,0.4)"/><path data-name="Path 4028" d="M77.857 232.429H62.143A2.142 2.142 0 0 0 60 234.572v7.142a2.142 2.142 0 0 0 2.143 2.143h15.714A2.142 2.142 0 0 0 80 241.714v-7.142a2.142 2.142 0 0 0-2.143-2.143Zm-6.071 6.785a1.786 1.786 0 1 1-3.571 0v-2.142a1.786 1.786 0 1 1 3.571 0Z" fill="#d41367"/></g></svg>