<svg xmlns="http://www.w3.org/2000/svg" width="22.5" height="20"><defs><clipPath id="a"><path data-name="Rectangle 3118" transform="translate(59 942)" fill="#fff" d="M0 0h22.5v20H0z"/></clipPath></defs><g data-name="Group 8327" transform="translate(-59 -942)" clip-path="url(#a)" fill="#d41367"><path data-name="Path 4049" d="m68.027 949.316-.367 2.133a.47.47 0 0 0 .187.457.477.477 0 0 0 .241.088.466.466 0 0 0 .251-.053l1.914-1.007 1.914 1.007a.467.467 0 0 0 .251.053.477.477 0 0 0 .241-.088.47.47 0 0 0 .188-.457l-.367-2.133 1.547-1.507a.471.471 0 0 0-.25-.8l-2.141-.313-.957-1.937a.469.469 0 0 0-.84 0l-.957 1.937-2.141.313a.47.47 0 0 0-.236.1.47.47 0 0 0-.025.7ZM74 958.875h-7.5a2.254 2.254 0 0 0-2.5 2.187v.469a.468.468 0 0 0 .469.469h11.562a.468.468 0 0 0 .469-.469v-.469a2.254 2.254 0 0 0-2.5-2.187Z" opacity=".4"/><path data-name="Path 4050" d="M80.567 944.5H76.5v-1.562a.935.935 0 0 0-.933-.938H64.938a.933.933 0 0 0-.662.272.936.936 0 0 0-.276.661v1.567h-4.062a.933.933 0 0 0-.662.272.936.936 0 0 0-.276.661v2.192c0 2.6 3.043 5.145 6.715 5.563a8.642 8.642 0 0 0 2.66 2.875v2.812h3.75v-2.812a8.642 8.642 0 0 0 2.66-2.875c3.684-.422 6.715-2.973 6.715-5.563v-2.187a.935.935 0 0 0-.933-.938ZM61.5 947.625V947h2.508a14.018 14.018 0 0 0 .5 3.367c-1.856-.64-3.008-1.949-3.008-2.742Zm12.527.184-1.547 1.507.367 2.133a.47.47 0 0 1-.187.457.477.477 0 0 1-.241.088.467.467 0 0 1-.251-.053l-1.914-1.007-1.914 1.007a.466.466 0 0 1-.251.053.477.477 0 0 1-.241-.088.47.47 0 0 1-.187-.457l.367-2.133-1.547-1.507a.47.47 0 0 1-.119-.483.47.47 0 0 1 .381-.318l2.141-.313.957-1.937a.469.469 0 0 1 .84 0l.957 1.937 2.141.313a.471.471 0 0 1 .248.801Zm4.973-.184c0 .789-1.148 2.1-3.008 2.742a14.018 14.018 0 0 0 .5-3.367H79Z"/></g></svg>